<svg xmlns="http://www.w3.org/2000/svg" width="94.44" height="119.923" viewBox="0 0 94.44 119.923"><g id="Group_3133" data-name="Group 3133" transform="translate(11757.5 -6011.257)"><path id="Path_368" data-name="Path 368" d="M94.44,87.116V79.609c0-5.138-3.092-6.875-5.986-6.875-.535,0-5.747.081-5.747.081a6.993,6.993,0,0,0,1.429-3.2c.467-2.558.834-5.166,1.091-7.751.051-.516.106-1.033.162-1.549a51.45,51.45,0,0,0,.422-7.036,8.789,8.789,0,0,0-8.03-8.614,16.356,16.356,0,0,1-1.96-.337V40.677a3.06,3.06,0,0,0,.027-.469c0-.825-.008-1.633-.015-2.416-.016-1.735-.031-3.373.031-4.989a35.814,35.814,0,0,0-1.318-12.135A28.906,28.906,0,0,0,43.017.264c-13.449,1.833-24.3,14.012-24.7,27.727-.077,2.657-.093,5.343-.108,7.94-.005.921-.047,4.4-.009,4.555v3.863a9.628,9.628,0,0,1-1.11.152c-5.432.415-8.98,4.286-8.83,9.633a105.4,105.4,0,0,0,1.711,15.71v.008H0V87.117H2.2s14.421.127,14.9.038a5.84,5.84,0,0,0-.167,4.641l.047.113c.192.441.408.876.642,1.3a62.5,62.5,0,0,0,10.156,14.244,64.426,64.426,0,0,0,13.743,10.871,10.251,10.251,0,0,0,10.988.009c1.686-1,3.286-2.091,4.836-3.2h0A53.4,53.4,0,0,0,68.81,104.591q.742-.88,1.451-1.787l.265-.34c.075-.1.15-.193.224-.291.573-.749.887-1.2.887-1.2h0q1.4-1.936,2.649-3.974,1.448-2.369,2.68-4.864A5.568,5.568,0,0,0,77,87.267c.194.014.389.023.586.023a8.044,8.044,0,0,0,1.667-.175Z" transform="translate(-11757.5 6011.26)" fill="#fff"></path><path id="Path_369" data-name="Path 369" d="M254.781,66.348a49.675,49.675,0,0,1-4.761-2.752c-1.58-.974-3.141-1.983-4.755-2.9a1.417,1.417,0,0,1-.829-1.487c.085-2.89.26-5.8-.732-8.6-2.258-6.357-6.578-10.415-13.411-11.02-6.335-.56-11.1,2.378-14.366,7.74a15.9,15.9,0,0,0-2.235,8.273c-.012,1.341-.037,2.682-.029,4.024a.823.823,0,0,1-.424.821c-2.9,1.736-5.783,3.491-8.683,5.223-.351.209-.743.657-1.131.437s-.13-.766-.126-1.166c.032-3.6.022-7.192.127-10.786.355-12.217,10.086-23.131,22.027-24.758a25.8,25.8,0,0,1,28.161,18.252A33.062,33.062,0,0,1,254.8,58.76c-.094,2.464-.018,4.934-.018,7.588" transform="translate(-11939.446 5985.15)" fill="#2c2a25"></path><path id="Path_370" data-name="Path 370" d="M157.977,331.449c-2.181-1.239-4.231-2.424-6.3-3.573-1.971-1.094-4.023-2.025-6.092-2.919a1.539,1.539,0,0,0-1.367.025,135.124,135.124,0,0,0-17.4,9.474,26.006,26.006,0,0,1-10.2,4.058,2.269,2.269,0,0,1-.361.057c-1.971-.046-1.671.463-1.565,2.017a122.223,122.223,0,0,0,1.55,13.249,2.776,2.776,0,0,1-3.179,3.459,2.885,2.885,0,0,1-2.265-2.469,102.874,102.874,0,0,1-1.664-15.252c-.105-3.764,2.241-6.184,5.98-6.469a18.386,18.386,0,0,0,7.53-2.634c3.646-2.033,7.031-4.51,10.765-6.388,3.291-1.655,6.618-3.241,9.944-4.827a3.356,3.356,0,0,1,2.756-.063,84.351,84.351,0,0,1,11.164,5.426,1.193,1.193,0,0,1,.711,1.215c-.042,1.829-.015,3.659-.015,5.615" transform="translate(-11855.219 5725.698)" fill="#ce8900"></path><path id="Path_371" data-name="Path 371" d="M228.612,845.856a1.553,1.553,0,0,1,.143,1.023,37.447,37.447,0,0,0,.037,4.023,3.827,3.827,0,0,1-1.825,3.886c-2.436,1.785-4.851,3.59-7.454,5.127a7.14,7.14,0,0,1-7.842,0,59.18,59.18,0,0,1-22.76-23.93,11.749,11.749,0,0,1-.529-1.062,2.762,2.762,0,0,1,.97-3.253,3.01,3.01,0,0,1,3.4.249,5.2,5.2,0,0,1,1.112,1.55,53.364,53.364,0,0,0,20.747,21.729,1.728,1.728,0,0,0,2.007-.009,57.414,57.414,0,0,0,10.8-8.258c.327-.319.65-.644.979-.963a.99.99,0,0,1,.215-.106" transform="translate(-11926.002 5266.981)" fill="#ce8900"></path><path id="Path_372" data-name="Path 372" d="M628.5,409.907a47.739,47.739,0,0,0,6.387,3.436,19.438,19.438,0,0,0,5.369,1.378,5.688,5.688,0,0,1,5.278,5.636,64.15,64.15,0,0,1-.57,8.191q-.374,3.77-1.055,7.5c-.317,1.743-1.421,2.8-2.882,2.753a2.72,2.72,0,0,1-2.644-3.15c.3-2.414.724-4.813,1-7.23.275-2.387.423-4.788.654-7.18.076-.783-.229-1.061-1-1.136a26.223,26.223,0,0,1-10.095-3.484.768.768,0,0,1-.448-.79c.015-1.918.007-3.837.007-5.924" transform="translate(-12320.231 5644.239)" fill="#2e2b27"></path><path id="Path_373" data-name="Path 373" d="M628.064,847.417c0-1.908.1-3.79-.027-5.655a8.034,8.034,0,0,1,1.574-5.787,26.292,26.292,0,0,0,1.658-2.932,3.355,3.355,0,0,1,2.949-1.93,2.682,2.682,0,0,1,2.352,3.777,58.49,58.49,0,0,1-8.261,12.437c-.03.035-.1.037-.244.09" transform="translate(-12319.8 5267.106)" fill="#2e2b27"></path><path id="Path_374" data-name="Path 374" d="M239.927,557.042h-9.7v-1.584l6.006-7.558H230.69v-1.949h8.841v1.6l-6.053,7.542h6.449Z" transform="translate(-11963.642 5522.429)"></path><path id="Path_375" data-name="Path 375" d="M335.784,572.6a5.326,5.326,0,0,1,3.327,1.2l-1.078,1.727a3.251,3.251,0,0,0-2.139-.808,2.115,2.115,0,1,0,0,4.215,3.25,3.25,0,0,0,2.139-.808l1.078,1.727a5.326,5.326,0,0,1-3.327,1.2,4.242,4.242,0,1,1,0-8.461" transform="translate(-12054.079 5498.564)"></path><path id="Path_376" data-name="Path 376" d="M422.942,572.779v8.128h-2.361v-1.188a2.891,2.891,0,0,1-2.551,1.363c-2.472,0-3.961-1.9-3.961-4.278,0-2.282,1.379-4.2,3.913-4.2a3.255,3.255,0,0,1,2.6,1.284v-1.109Zm-4.421,6.385a2.046,2.046,0,0,0,2.123-2.218,2.167,2.167,0,0,0-2.187-2.424,2.075,2.075,0,0,0-2.028,2.3,2.12,2.12,0,0,0,2.091,2.345" transform="translate(-12128.245 5498.564)"></path><path id="Path_377" data-name="Path 377" d="M513.914,578.04a1.654,1.654,0,0,0,1.711,1.22c.523,0,1.062-.19,1.062-.618,0-.269-.159-.444-.6-.618l-1.426-.6c-1.933-.665-2.028-1.964-2.028-2.329,0-1.632,1.458-2.488,3.185-2.488a3.051,3.051,0,0,1,2.931,1.711l-1.822.84a1.136,1.136,0,0,0-1.157-.776c-.444,0-.9.238-.9.665,0,.365.333.523.76.7l1.22.475c1.917.555,2.092,1.806,2.092,2.345,0,1.664-1.537,2.519-3.327,2.519a3.3,3.3,0,0,1-3.407-2.076Z" transform="translate(-12216.112 5498.563)"></path><path id="Path_378" data-name="Path 378" d="M591.242,542.469H593.6v4.436a2.871,2.871,0,0,1,2.519-1.283c2.282,0,2.9,1.806,2.9,3.882v4.421h-2.361v-4.373c0-1.125-.412-1.981-1.505-1.981s-1.553.871-1.553,2v4.357h-2.361Z" transform="translate(-12286.881 5525.546)"></path><path id="Path_379" data-name="Path 379" d="M30.192,707.894V696.8H37.56v1.949H32.648v2.725H36.91v1.949H32.648v4.468Z" transform="translate(-11784.533 5387.361)" fill="#ce8900"></path><path id="Path_380" data-name="Path 380" d="M111.743,723.458a4.244,4.244,0,1,1-4.468,4.231,4.3,4.3,0,0,1,4.468-4.231m0,6.449a2.211,2.211,0,1,0-2.17-2.25c0,.011,0,.021,0,.032a2.175,2.175,0,0,0,2.131,2.218h.04" transform="translate(-11853.551 5363.494)" fill="#ce8900"></path><path id="Path_381" data-name="Path 381" d="M214.087,733.252h-2.361v-1.109a2.871,2.871,0,0,1-2.519,1.283c-2.282,0-2.9-1.822-2.9-3.882v-4.421h2.361V729.5c0,1.125.412,1.981,1.505,1.981s1.553-.871,1.553-2v-4.358h2.361Z" transform="translate(-11942.222 5362.002)" fill="#ce8900"></path><path id="Path_382" data-name="Path 382" d="M300.194,723.631h2.361v1.109a2.871,2.871,0,0,1,2.519-1.284c2.282,0,2.9,1.806,2.9,3.882v4.421h-2.36v-4.373c0-1.125-.412-1.981-1.505-1.981s-1.553.871-1.553,2v4.357h-2.361Z" transform="translate(-12026.285 5363.495)" fill="#ce8900"></path><path id="Path_383" data-name="Path 383" d="M397.351,693.322v11.456H394.99v-1.188a2.892,2.892,0,0,1-2.551,1.363c-2.472,0-3.961-1.9-3.961-4.278,0-2.281,1.378-4.2,3.913-4.2a3.255,3.255,0,0,1,2.6,1.283v-4.436Zm-4.421,9.713a2.046,2.046,0,0,0,2.123-2.218,2.167,2.167,0,0,0-2.187-2.424,2.074,2.074,0,0,0-2.028,2.3,2.12,2.12,0,0,0,2.092,2.345" transform="translate(-12105.332 5390.477)" fill="#ce8900"></path><path id="Path_384" data-name="Path 384" d="M497.142,723.631v8.128H494.78v-1.188a2.892,2.892,0,0,1-2.551,1.363c-2.472,0-3.961-1.9-3.961-4.278,0-2.282,1.379-4.2,3.913-4.2a3.255,3.255,0,0,1,2.6,1.283v-1.109Zm-4.421,6.385a2.046,2.046,0,0,0,2.123-2.218,2.167,2.167,0,0,0-2.187-2.424,2.075,2.075,0,0,0-2.028,2.3,2.12,2.12,0,0,0,2.091,2.345" transform="translate(-12194.681 5363.495)" fill="#ce8900"></path><path id="Path_385" data-name="Path 385" d="M589.676,708.038h2.25v1.854h-2.25v3.8c0,.364.143.713.6.713s.618-.38.618-.76a2.564,2.564,0,0,0-.111-.7h1.869a2.338,2.338,0,0,1,.19.967,2.411,2.411,0,0,1-2.71,2.424c-1.442,0-2.82-.523-2.82-2.868v-3.58h-1.219v-1.854h1.395l.364-2h1.822Z" transform="translate(-12282.272 5379.088)" fill="#ce8900"></path><path id="Path_386" data-name="Path 386" d="M660.876,691.657a1.341,1.341,0,1,1,0,2.662,1.339,1.339,0,1,1,0-2.662m-1.2,3.5h2.361v8.128h-2.361Z" transform="translate(-12347.896 5391.968)" fill="#ce8900"></path><path id="Path_387" data-name="Path 387" d="M703.988,723.458a4.244,4.244,0,1,1-4.468,4.231,4.3,4.3,0,0,1,4.468-4.231m0,6.449a2.211,2.211,0,1,0-2.17-2.25c0,.011,0,.021,0,.032a2.175,2.175,0,0,0,2.131,2.218h.04" transform="translate(-12383.83 5363.494)" fill="#ce8900"></path><path id="Path_388" data-name="Path 388" d="M799.46,723.631h2.361v1.109a2.871,2.871,0,0,1,2.519-1.284c2.282,0,2.9,1.806,2.9,3.882v4.421h-2.361v-4.373c0-1.125-.412-1.981-1.505-1.981s-1.553.871-1.553,2v4.357H799.46Z" transform="translate(-12473.313 5363.495)" fill="#ce8900"></path><path id="Path_389" data-name="Path 389" d="M254.781,66.348a49.675,49.675,0,0,1-4.761-2.752c-1.58-.974-3.141-1.983-4.755-2.9a1.417,1.417,0,0,1-.829-1.487c.085-2.89.26-5.8-.732-8.6-2.258-6.357-6.578-10.415-13.411-11.02-6.335-.56-11.1,2.378-14.366,7.74a15.9,15.9,0,0,0-2.235,8.273c-.012,1.341-.037,2.682-.029,4.024a.823.823,0,0,1-.424.821c-2.9,1.736-5.783,3.491-8.683,5.223-.351.209-.743.657-1.131.437s-.13-.766-.126-1.166c.032-3.6.022-7.192.127-10.786.355-12.217,10.086-23.131,22.027-24.758a25.8,25.8,0,0,1,28.161,18.252A33.062,33.062,0,0,1,254.8,58.76c-.094,2.464-.018,4.934-.018,7.588" transform="translate(-11939.446 5985.15)" fill="#2c2a25"></path><path id="Path_390" data-name="Path 390" d="M157.977,331.449c-2.181-1.239-4.231-2.424-6.3-3.573-1.971-1.094-4.023-2.025-6.092-2.919a1.539,1.539,0,0,0-1.367.025,135.124,135.124,0,0,0-17.4,9.474,26.006,26.006,0,0,1-10.2,4.058,2.269,2.269,0,0,1-.361.057c-1.971-.046-1.671.463-1.565,2.017a122.223,122.223,0,0,0,1.55,13.249,2.776,2.776,0,0,1-3.179,3.459,2.885,2.885,0,0,1-2.265-2.469,102.874,102.874,0,0,1-1.664-15.252c-.105-3.764,2.241-6.184,5.98-6.469a18.386,18.386,0,0,0,7.53-2.634c3.646-2.033,7.031-4.51,10.765-6.388,3.291-1.655,6.618-3.241,9.944-4.827a3.356,3.356,0,0,1,2.756-.063,84.351,84.351,0,0,1,11.164,5.426,1.193,1.193,0,0,1,.711,1.215c-.042,1.829-.015,3.659-.015,5.615" transform="translate(-11855.219 5725.698)" fill="#ce8900"></path><path id="Path_391" data-name="Path 391" d="M228.612,845.856a1.553,1.553,0,0,1,.143,1.023,37.447,37.447,0,0,0,.037,4.023,3.827,3.827,0,0,1-1.825,3.886c-2.436,1.785-4.851,3.59-7.454,5.127a7.14,7.14,0,0,1-7.842,0,59.18,59.18,0,0,1-22.76-23.93,11.749,11.749,0,0,1-.529-1.062,2.762,2.762,0,0,1,.97-3.253,3.01,3.01,0,0,1,3.4.249,5.2,5.2,0,0,1,1.112,1.55,53.364,53.364,0,0,0,20.747,21.729,1.728,1.728,0,0,0,2.007-.009,57.414,57.414,0,0,0,10.8-8.258c.327-.319.65-.644.979-.963a.99.99,0,0,1,.215-.106" transform="translate(-11926.002 5266.981)" fill="#ce8900"></path><path id="Path_392" data-name="Path 392" d="M628.5,409.907a47.739,47.739,0,0,0,6.387,3.436,19.438,19.438,0,0,0,5.369,1.378,5.688,5.688,0,0,1,5.278,5.636,64.15,64.15,0,0,1-.57,8.191q-.374,3.77-1.055,7.5c-.317,1.743-1.421,2.8-2.882,2.753a2.72,2.72,0,0,1-2.644-3.15c.3-2.414.724-4.813,1-7.23.275-2.387.423-4.788.654-7.18.076-.783-.229-1.061-1-1.136a26.223,26.223,0,0,1-10.095-3.484.768.768,0,0,1-.448-.79c.015-1.918.007-3.837.007-5.924" transform="translate(-12320.231 5644.239)" fill="#2e2b27"></path><path id="Path_393" data-name="Path 393" d="M628.064,847.417c0-1.908.1-3.79-.027-5.655a8.034,8.034,0,0,1,1.574-5.787,26.292,26.292,0,0,0,1.658-2.932,3.355,3.355,0,0,1,2.949-1.93,2.682,2.682,0,0,1,2.352,3.777,58.49,58.49,0,0,1-8.261,12.437c-.03.035-.1.037-.244.09" transform="translate(-12319.8 5267.106)" fill="#2e2b27"></path><path id="Path_394" data-name="Path 394" d="M239.927,557.042h-9.7v-1.584l6.006-7.558H230.69v-1.949h8.841v1.6l-6.053,7.542h6.449Z" transform="translate(-11963.642 5522.429)"></path><path id="Path_395" data-name="Path 395" d="M335.784,572.6a5.326,5.326,0,0,1,3.327,1.2l-1.078,1.727a3.251,3.251,0,0,0-2.139-.808,2.115,2.115,0,1,0,0,4.215,3.25,3.25,0,0,0,2.139-.808l1.078,1.727a5.326,5.326,0,0,1-3.327,1.2,4.242,4.242,0,1,1,0-8.461" transform="translate(-12054.079 5498.564)"></path><path id="Path_396" data-name="Path 396" d="M422.942,572.779v8.128h-2.361v-1.188a2.891,2.891,0,0,1-2.551,1.363c-2.472,0-3.961-1.9-3.961-4.278,0-2.282,1.379-4.2,3.913-4.2a3.255,3.255,0,0,1,2.6,1.284v-1.109Zm-4.421,6.385a2.046,2.046,0,0,0,2.123-2.218,2.167,2.167,0,0,0-2.187-2.424,2.075,2.075,0,0,0-2.028,2.3,2.12,2.12,0,0,0,2.091,2.345" transform="translate(-12128.245 5498.564)"></path><path id="Path_397" data-name="Path 397" d="M513.914,578.04a1.654,1.654,0,0,0,1.711,1.22c.523,0,1.062-.19,1.062-.618,0-.269-.159-.444-.6-.618l-1.426-.6c-1.933-.665-2.028-1.964-2.028-2.329,0-1.632,1.458-2.488,3.185-2.488a3.051,3.051,0,0,1,2.931,1.711l-1.822.84a1.136,1.136,0,0,0-1.157-.776c-.444,0-.9.238-.9.665,0,.365.333.523.76.7l1.22.475c1.917.555,2.092,1.806,2.092,2.345,0,1.664-1.537,2.519-3.327,2.519a3.3,3.3,0,0,1-3.407-2.076Z" transform="translate(-12216.112 5498.563)"></path><path id="Path_398" data-name="Path 398" d="M591.242,542.469H593.6v4.436a2.871,2.871,0,0,1,2.519-1.283c2.282,0,2.9,1.806,2.9,3.882v4.421h-2.361v-4.373c0-1.125-.412-1.981-1.505-1.981s-1.553.871-1.553,2v4.357h-2.361Z" transform="translate(-12286.881 5525.546)"></path><path id="Path_399" data-name="Path 399" d="M30.192,707.894V696.8H37.56v1.949H32.648v2.725H36.91v1.949H32.648v4.468Z" transform="translate(-11784.533 5387.361)" fill="#ce8900"></path><path id="Path_400" data-name="Path 400" d="M111.743,723.458a4.244,4.244,0,1,1-4.468,4.231,4.3,4.3,0,0,1,4.468-4.231m0,6.449a2.211,2.211,0,1,0-2.17-2.25c0,.011,0,.021,0,.032a2.175,2.175,0,0,0,2.131,2.218h.04" transform="translate(-11853.551 5363.494)" fill="#ce8900"></path><path id="Path_401" data-name="Path 401" d="M214.087,733.252h-2.361v-1.109a2.871,2.871,0,0,1-2.519,1.283c-2.282,0-2.9-1.822-2.9-3.882v-4.421h2.361V729.5c0,1.125.412,1.981,1.505,1.981s1.553-.871,1.553-2v-4.358h2.361Z" transform="translate(-11942.222 5362.002)" fill="#ce8900"></path><path id="Path_402" data-name="Path 402" d="M300.194,723.631h2.361v1.109a2.871,2.871,0,0,1,2.519-1.284c2.282,0,2.9,1.806,2.9,3.882v4.421h-2.36v-4.373c0-1.125-.412-1.981-1.505-1.981s-1.553.871-1.553,2v4.357h-2.361Z" transform="translate(-12026.285 5363.495)" fill="#ce8900"></path><path id="Path_403" data-name="Path 403" d="M397.351,693.322v11.456H394.99v-1.188a2.892,2.892,0,0,1-2.551,1.363c-2.472,0-3.961-1.9-3.961-4.278,0-2.281,1.378-4.2,3.913-4.2a3.255,3.255,0,0,1,2.6,1.283v-4.436Zm-4.421,9.713a2.046,2.046,0,0,0,2.123-2.218,2.167,2.167,0,0,0-2.187-2.424,2.074,2.074,0,0,0-2.028,2.3,2.12,2.12,0,0,0,2.092,2.345" transform="translate(-12105.332 5390.477)" fill="#ce8900"></path><path id="Path_404" data-name="Path 404" d="M497.142,723.631v8.128H494.78v-1.188a2.892,2.892,0,0,1-2.551,1.363c-2.472,0-3.961-1.9-3.961-4.278,0-2.282,1.379-4.2,3.913-4.2a3.255,3.255,0,0,1,2.6,1.283v-1.109Zm-4.421,6.385a2.046,2.046,0,0,0,2.123-2.218,2.167,2.167,0,0,0-2.187-2.424,2.075,2.075,0,0,0-2.028,2.3,2.12,2.12,0,0,0,2.091,2.345" transform="translate(-12194.681 5363.495)" fill="#ce8900"></path><path id="Path_405" data-name="Path 405" d="M589.676,708.038h2.25v1.854h-2.25v3.8c0,.364.143.713.6.713s.618-.38.618-.76a2.564,2.564,0,0,0-.111-.7h1.869a2.338,2.338,0,0,1,.19.967,2.411,2.411,0,0,1-2.71,2.424c-1.442,0-2.82-.523-2.82-2.868v-3.58h-1.219v-1.854h1.395l.364-2h1.822Z" transform="translate(-12282.272 5379.088)" fill="#ce8900"></path><rect id="Rectangle_178" data-name="Rectangle 178" width="2.361" height="8.128" transform="translate(-11688.224 6087.127)" fill="#ce8900"></rect><path id="Path_406" data-name="Path 406" d="M703.988,723.458a4.244,4.244,0,1,1-4.468,4.231,4.3,4.3,0,0,1,4.468-4.231m0,6.449a2.211,2.211,0,1,0-2.17-2.25c0,.011,0,.021,0,.032a2.175,2.175,0,0,0,2.131,2.218h.04" transform="translate(-12383.83 5363.494)" fill="#ce8900"></path><path id="Path_407" data-name="Path 407" d="M799.46,723.631h2.361v1.109a2.871,2.871,0,0,1,2.519-1.284c2.282,0,2.9,1.806,2.9,3.882v4.421h-2.361v-4.373c0-1.125-.412-1.981-1.505-1.981s-1.553.871-1.553,2v4.357H799.46Z" transform="translate(-12473.313 5363.495)" fill="#ce8900"></path><rect id="Rectangle_179" data-name="Rectangle 179" width="94.44" height="119.923" transform="translate(-11757.5 6011.257)" fill="none"></rect></g></svg>