<?xml version="1.0" encoding="UTF-8"?>
<svg id="Layer_1" data-name="Layer 1" xmlns="http://www.w3.org/2000/svg" viewBox="0 0 300 300">
  <defs>
    <style>
      .cls-1 {
        fill: #ee392c;
      }

      .cls-2 {
        fill: #fff;
      }

      .cls-3 {
        fill: #0052ff;
      }
    </style>
  </defs>
  <path class="cls-2" d="M300,0v300H0V0h300ZM233,157v-87.5c0-43.42-52.79-68.4-91.05-63.05-27.27,3.81-64.95,32.33-64.95,62.05v57.5l25,1v-49.5c0-27.18,30.31-50.7,56.55-49.55,23.58,1.04,50.45,25.49,50.45,49.55v79.5h24ZM136,135H52v84h75v-17l9.02-.58v-4.43h-9.02v-18h9.01v-4.42s-9.01-.58-9.01-.58v-18h9v-21h0ZM208,158h-71v15h112v-15h-16v8h-25v-8ZM137,180v16h112v-16h-112ZM249,204h-112v15h112v-15ZM249,226H65v15h184v-15ZM249,248H65v16h184v-16ZM249,271H65v16h184v-16Z"/>
  <path class="cls-3" d="M233,157h-24v-79.5c0-24.06-26.87-48.51-50.45-49.55-26.24-1.15-56.55,22.36-56.55,49.55v49.5l-25-1v-57.5c0-29.72,37.68-58.24,64.95-62.05,38.26-5.35,91.05,19.63,91.05,63.05v87.5Z"/>
  <polygon class="cls-3" points="136 135 136 156 127 156 127 174 136.02 174.58 136.01 179.01 127 179 127 197 136.01 196.99 136.02 201.42 127 202 127 219 52 219 52 135 136 135"/>
  <rect class="cls-1" x="65" y="248" width="184" height="16"/>
  <rect class="cls-1" x="65" y="271" width="184" height="16"/>
  <rect class="cls-1" x="65" y="226" width="184" height="15"/>
  <rect class="cls-1" x="137" y="180" width="112" height="16"/>
  <rect class="cls-1" x="137" y="204" width="112" height="15"/>
  <polygon class="cls-1" points="208 158 208 166 233 166 233 158 249 158 249 173 137 173 137 158 208 158"/>
</svg>